<?xml version="1.0" encoding="utf-8"?>
<svg viewBox="56 224.3234 386 49.6766" xmlns="http://www.w3.org/2000/svg">
  <g transform="matrix(0.10000000149011612, 0, 0, -0.10000000149011612, 7.105427357601002e-15, 500.00000000000006)" fill="#000000" stroke="none">
    <path d="M3575 2751 c-49 -13 -92 -39 -114 -70 -50 -70 -54 -256 -7 -336 39 -66 78 -80 216 -80 160 0 206 28 218 130 l5 45 -62 0 c-56 0 -62 -2 -71 -24 -12 -34 -39 -46 -100 -46 -67 0 -95 26 -105 99 -8 61 10 148 34 160 33 18 81 22 121 11 32 -9 44 -18 52 -41 10 -28 13 -29 70 -29 l61 0 -6 46 c-10 93 -72 136 -202 140 -44 2 -93 0 -110 -5z" style="fill: rgb(234, 0, 82);"/>
    <path d="M560 2568 c0 -156 3 -189 19 -224 26 -58 72 -78 190 -82 105 -4 163 8 199 41 48 44 52 64 52 262 l0 185 -65 0 -65 0 0 -170 c0 -204 -3 -210 -98 -210 -98 0 -102 6 -102 168 0 75 -3 154 -6 175 l-7 37 -58 0 -59 0 0 -182z" style="fill: rgb(234, 0, 82);"/>
    <path d="M1090 2505 l0 -245 65 0 65 0 2 173 3 172 28 -60 c83 -175 116 -245 122 -264 6 -19 14 -21 106 -21 l99 0 0 245 0 245 -60 0 -60 0 0 -171 c0 -93 -3 -168 -8 -166 -4 3 -41 80 -82 171 l-74 166 -103 0 -103 0 0 -245z" style="fill: rgb(234, 0, 82);"/>
    <path d="M1660 2505 l0 -245 65 0 65 0 0 245 0 245 -65 0 -65 0 0 -245z" style="fill: rgb(234, 0, 82);"/>
    <path d="M1860 2505 l0 -245 60 0 60 0 0 174 c0 96 3 177 8 179 4 3 27 -44 51 -104 l44 -110 71 3 70 3 42 104 c24 57 46 106 49 109 3 3 5 -76 5 -176 l0 -182 65 0 65 0 0 245 0 246 -102 -3 -102 -3 -44 -107 c-25 -59 -48 -105 -52 -103 -5 3 -15 24 -23 48 -9 23 -27 69 -41 102 l-25 60 -100 3 -101 3 0 -246z" style="fill: rgb(234, 0, 82);"/>
    <path d="M2576 2518 c-44 -128 -81 -239 -84 -245 -3 -10 14 -13 65 -13 l70 0 9 33 10 32 106 3 107 3 9 -33 c8 -33 9 -33 75 -36 37 -2 67 0 67 4 0 4 -27 86 -61 183 -33 97 -70 204 -81 239 l-21 62 -96 0 -96 0 -79 -232z m152 94 c18 -18 19 -18 42 0 47 38 100 10 100 -53 0 -35 -6 -45 -62 -99 l-62 -59 -49 47 c-80 78 -93 117 -52 157 29 30 58 32 83 7z" style="fill: rgb(234, 0, 82);"/>
    <path d="M2970 2695 l0 -54 72 -3 72 -3 -3 -132 c-1 -73 1 -158 4 -188 l7 -55 59 0 59 0 0 190 0 190 75 0 75 0 0 55 0 55 -210 0 -210 0 0 -55z" style="fill: rgb(234, 0, 82);"/>
    <path d="M3960 2505 l0 -245 65 0 65 0 0 100 0 101 103 -3 102 -3 3 -97 3 -98 59 0 60 0 0 245 0 245 -60 0 -60 0 0 -90 0 -90 -105 0 -105 0 0 90 0 90 -65 0 -65 0 0 -245z" style="fill: rgb(234, 0, 82);"/>
  </g>
</svg>